<?xml version="1.0" encoding="utf-8"?>
<!-- Generator: Adobe Illustrator 21.0.0, SVG Export Plug-In . SVG Version: 6.00 Build 0)  -->
<svg version="1.1" id="Layer_1" xmlns="http://www.w3.org/2000/svg" xmlns:xlink="http://www.w3.org/1999/xlink" x="0px" y="0px"
	 viewBox="0 0 670.9 154.2" style="enable-background:new 0 0 670.9 154.2;" xml:space="preserve">
<style type="text/css">
	.st0{fill:none;}
	.st1{display:none;}
	.st2{display:inline;fill:none;stroke:#FF0055;stroke-miterlimit:10;}
	.st3{fill:#FFFFFF;}
	.st4{font-family:'Mael';}
	.st5{font-size:74.4485px;}
	.st6{enable-background:new    ;}
	.st7{fill:#FFFFFF;stroke:#FFFFFF;stroke-miterlimit:10;}
	.st8{font-size:96.7672px;}
	.st9{font-size:42.2736px;}
</style>
<title>Pratishtha_logo</title>
<g>
	<title>background</title>
	<rect id="canvas_background" x="-1" y="-1" class="st0" width="582" height="402"/>
</g>
<g>
	<g id="svg_1" class="st1">
		<path id="svg_2" class="st2" d="M507.4,46.6c7.3-0.2,14.4,3.2,18.9,9.2v-2.4c-0.1-0.2-0.2-0.5-0.2-0.8c-0.2-1.6-0.2-2.4-0.2-2.2
			c0-2.5,1.1-3.7,3.2-3.7c2.3,0,3.4,1.5,3.4,4.5c0,0.6-0.1,2.3-0.2,5.1c-0.3,2.4-0.6,5-0.6,7.5c0,2,0.2,4,0.4,5.9l0.5,4.1v1.1
			c0,3.3-1.3,4.8-3.8,4.8c-2.7,0-4-1.5-3.9-4.6v-3.9c0.2-5.1-1.4-9.4-4.7-12.5c-3.2-3.2-7.5-4.8-12.8-4.7c-6.9,0-12.2,2.7-16.2,8.2
			c-3.9,5.4-5.8,13-5.8,22.7c0,9.9,2,17.6,6,23.1c4,5.4,9.6,8.3,16.8,8.3c3.7,0.1,7.3-1,10.4-2.9c2.9-1.7,5.2-4.4,6.5-7.7
			c0.9-2.7,1.3-5.5,1.3-8.5c0-3.3,1.3-5,3.9-5c2.8,0,4.3,1.6,4.3,5c0,7.7-2.6,14-7.7,18.9c-5.1,4.9-11.8,7.4-20,7.4
			c-9.4,0-17-3.4-22.6-10.2c-5.6-6.9-8.4-15.9-8.4-27.3c0-11.7,2.8-21.2,8.6-28.4C490.4,50.1,497.9,46.5,507.4,46.6L507.4,46.6z"/>
		<path id="svg_3" class="st2" d="M552.9,76.1v33.4c0.1,3.7,1,5.4,2.8,5.4c0.9-0.1,1.7-0.2,2.6-0.6c0.6-0.1,1.1-0.2,1.7-0.2
			c2.3,0,3.5,1.2,3.5,3.7c0,2.4-1.4,3.6-4.3,3.5c-1.7-0.1-3.6-0.2-5.3-0.4c-1.8-0.2-3.7-0.4-5.6-0.4c-1.7,0.1-3.3,0.2-5,0.4
			c-1.6,0.2-3.2,0.4-4.9,0.4h-0.6c-2.9,0-4.3-1.3-4.3-3.8c0-2.2,1.2-3.3,3.6-3.3h0.7c0.3,0.1,0.6,0.2,0.9,0.2c1,0.2,2.1,0.5,3,0.6
			c1.1,0.2,2.1-0.6,2.4-1.6s0.5-4,0.6-8.7l0.1-7.6V61.1c0-1.5-0.1-2.8-0.3-4.3c-0.5-1.6-1.4-2.4-2.9-2.4c-0.2,0-1.1,0.2-2.7,0.4
			c-0.6,0.2-1.3,0.2-1.9,0.2c-2.4,0-3.6-1.1-3.6-3.4c0-2.3,1.4-3.5,4.2-3.5c0.6,0,1.3,0,2,0.1l2.8,0.4c2,0.3,3.9,0.2,5.9-0.1
			c1-0.2,2.1-0.2,3.1-0.3c1.6,0,2.4,1.1,2.4,3.1c0,0.6,0,1.1-0.1,1.6C553.2,58.2,552.9,66.1,552.9,76.1L552.9,76.1z"/>
		<path id="svg_4" class="st2" d="M586.4,122.8c-7.3,0-13.2-2.6-17.5-7.8c-4.3-5.1-6.6-12.2-6.6-21s2.2-15.7,6.6-21
			c4.4-5.2,10.3-7.8,17.8-7.8s13.6,2.5,17.9,7.6c4.3,5.1,6.6,12,6.6,20.8s-2.2,15.8-6.7,21.1C599.9,120.2,593.9,122.8,586.4,122.8
			L586.4,122.8z M586.9,72.6c-4.8,0-8.7,1.7-11.4,5.2s-4.3,8.5-4.6,15v1.4c0,6.7,1.3,12,4.1,15.9s6.6,5.7,11.4,5.7
			c5.1,0,9-1.9,11.8-5.7c2.8-3.8,4.3-9.2,4.3-15.9C602.7,79.6,597.4,72.6,586.9,72.6L586.9,72.6L586.9,72.6z"/>
		<path id="svg_5" class="st2" d="M656,118.3V115c-3.7,5.2-9.1,7.9-16.3,7.9c-8.1,0-13.9-2.6-17.1-7.9c-1.4-2.4-2.2-5.2-2.3-8.1
			c-0.1-1.5-0.1-4.6-0.1-9.5v-8.8c0-9.8-1-14.7-3-14.7c-0.6,0-1.3,0.1-2,0.2c-0.7,0.1-1.4,0.2-2.1,0.2c-2.4,0-3.7-1.1-3.7-3.5
			c0-2.3,1.5-3.4,4.5-3.3c1,0,2.1,0.1,3.1,0.2c1,0.2,2.1,0.2,3.1,0.2c1.1-0.1,2.1-0.2,3.2-0.3c1-0.2,1.7-0.2,1.7-0.2
			c2.1,0,3.2,1.4,3.2,4.1v9.3l-0.3,8v7c0,6.2,0.5,10.7,1.4,13.4c1.6,4.5,5.4,6.8,11.4,6.8c3,0,3-0.7,5.3-2.1
			c2.3-1.4,6.5-3.3,7.4-5.5c1.1-2.8,1.7-8.1,1.7-15.9v-13c-0.3-3.4-1.3-5.1-2.7-5.1h-2.9c-2.4,0-3.6-1.1-3.6-3.3
			c0-2.4,1.3-3.7,4-3.7c0.6,0,1.6,0.1,2.8,0.2c1.3,0.2,2.2,0.2,2.8,0.2c0.9,0,1.7-0.1,2.5-0.2c0.8-0.1,1.7-0.2,2.5-0.2
			c2.1,0,3.1,1.1,3.1,3.4c0,0.8-0.1,1.5-0.2,2.4c-0.4,4-0.6,8-0.6,12.1v16.6c0,4.3,0,6.8,0.1,7.4c0.3,3.8,1.3,5.7,2.9,5.7
			c0.7,0,1.4-0.1,2.1-0.2c0.7-0.2,1.3-0.2,2.1-0.2c2.4,0,3.6,1.1,3.6,3.5c0,2.4-1.4,3.6-4.3,3.7c-0.9,0-1.8-0.1-2.7-0.2
			c-1.7-0.2-2.8-0.3-3.2-0.3c-0.2,0-0.9,0.1-2.2,0.2c-0.7,0.2-1.4,0.3-2.2,0.3C657.1,121.4,656,120.4,656,118.3L656,118.3z"/>
		<path id="svg_6" class="st2" d="M695.5,65.4c6.9,0,11.9,2.8,15.5,8.3V62.8c0.1-1.8,0-3.5-0.2-5.2c-0.3-2.2-1.3-3.3-2.9-3.3
			c-0.8,0-1.6,0.2-2.4,0.3c-0.8,0.2-1.6,0.3-2.4,0.3c-2.5,0-3.9-1.1-3.9-3.4c0-2.3,1.7-3.5,5.2-3.5c0.6,0,1.6,0.1,3,0.2l3.4,0.3
			c0.9,0,1.8-0.1,2.7-0.2s1.8-0.2,2.7-0.2c2,0,2.9,1.5,2.9,4.3v1.1c-0.1,0.2-0.2,2.1-0.2,5.7c0,0.4-0.1,3.2-0.3,8.3
			c-0.2,3.6-0.2,6.3-0.2,8.2v28.5c0.1,4.7,0.3,7.7,0.6,8.9c0.3,1.1,1.4,1.9,2.5,1.7c0.7,0,1.4-0.1,2.1-0.2c0.8-0.1,1.6-0.2,2.4-0.2
			c2.6,0,3.9,1.1,3.9,3.5c0,2.4-1.6,3.6-4.7,3.7c-1,0-2.1-0.1-3.2-0.2c-1-0.2-2.1-0.2-3.2-0.2c-0.2,0-1,0.1-2.4,0.2
			c-0.7,0.2-1.4,0.3-2.2,0.3c-1.9,0-2.8-1.3-2.8-3.8v-2.4c-3.6,5-9,7.6-16,7.6c-7,0-12.7-2.6-17.1-8c-4.3-5.3-6.4-12.3-6.4-20.9
			s2.1-15.5,6.3-20.8C682.8,68,688.4,65.4,695.5,65.4L695.5,65.4z M710.5,103.4c0.3-3,0.5-6,0.4-9.2c0.1-3.3-0.1-6.6-0.6-9.8
			c-0.5-3.3-2.1-6.2-4.5-8.4c-2.7-2.4-6.1-3.6-9.6-3.5c-4.9,0-8.7,1.9-11.4,5.7c-2.8,3.8-4.1,9-4.1,15.6c0,6.8,1.4,12.2,4.3,16
			c5.1,6.7,14.7,7.9,21.2,2.4l0,0C708.6,110,710.2,106.8,710.5,103.4z"/>
		<path id="svg_7" class="st2" d="M738.6,122.8c-1.7,0-3.4-0.7-4.6-2c-2.5-2.7-2.5-6.9,0-9.6c2.4-2.6,6.5-2.7,9-0.1l0.1,0.1
			c2.5,2.7,2.5,6.9,0,9.6C742,122.1,740.3,122.8,738.6,122.8z"/>
		<path id="svg_8" class="st2" d="M268.1,102.3c-2.5,0.1-5.1-0.3-7.4-1.2c-0.6-0.3-1.3-0.4-2.1-0.2c-0.2,0.1-0.6,0.8-1.1,2.2
			c-2.1,8.8-5.8,17.1-10.6,24.6c-6.2,9.5-12.5,14.3-19.1,14.3c-5.1,0-8.8-2.1-11.4-6.5c-1.9-3.4-2.8-8-2.8-13.6
			c0-11.5,3.6-26.1,11-43.7c6.8-16.2,15.9-28.8,27.2-38c10.1-8.5,20.1-12.4,29.8-12.2c8.1,0.2,14.1,3.1,18.2,8.7
			c3.3,4.6,5,10.7,5,18.3c0,8.5-2.2,17-6.6,25.8c-4.7,9.6-10.5,15.8-17.2,18.7C276.9,101.4,272.6,102.3,268.1,102.3 M288.1,60
			c0.2-1.5,0.2-3.2,0.2-4.7c0-10.6-3.3-15.9-10-16.1c-8.4-0.1-17.8,6.8-28.3,20.7c-8.7,11.7-14.6,22.8-17.7,33.1
			c-4.2,14.3-6.2,23.6-6.2,27.9c0,3.8,1.2,5.7,3.6,5.7c4.4,0,9.3-10,14.8-29.8c1.4-5.7,2.9-15.2,4.4-28.5c0.2-1.5,0.9-2.8,2.2-3.7
			c1.3-0.8,2.6-1.7,3.9-2.5c1.3-1.2,3.1-2,4.9-2.1c1.7,0,2.7,1.1,2.8,3.2c0.2,3.3,0.2,6.7-0.1,10c-0.2,4.1-0.7,9.2-1.4,15
			c-0.2,1.9,0.2,2.8,1.5,3.1c6.2,0.5,11.6-2.4,16.4-8.7c4.2-5,6.9-11.1,8.1-17.6C287.7,63.2,288,61.6,288.1,60L288.1,60z"/>
		<path id="svg_9" class="st2" d="M370.1,115.3c-3.6,3.7-8.2,6.3-13.3,7.2c-1.1,0.2-2.2,0.3-3.4,0.4c-1.2,0.1-2.4,0.2-3.6,0.2
			c-6.3,0-10.7-0.9-13-2.6c-2.2-1.5-3.5-4.1-3.5-6.8c0.2-2.1,0.5-4.1,1.1-6.1c0.1-0.2,0.1-0.6,0-0.8c-0.3-0.1-0.6,0.1-0.7,0.2
			c-0.3,0.2-0.6,0.6-0.7,1c-1.3,2.8-3.8,5.8-7.3,9.1c-5.1,4.6-9.9,7.1-14.5,7.1c-4.4,0-7.8-1.5-10.3-4.6c-2.5-2.8-3.8-6.7-3.8-11.4
			c0-6,1.8-12.7,5.4-19.8c3.3-6.9,8.6-12.6,15.2-16.3c4.5-2.7,9.6-4.1,14.8-4.4c3.6-0.2,7,0.7,10.2,2.4c1.4,0.8,2.4,0.7,3-0.2
			c0.5-0.8,1-1.5,1.7-2.2c0.6-0.7,1.3-1.2,2.1-1.5c0.9-0.2,2.6-0.2,5.1,0.4c2.5,0.5,4.1,1,4.7,1.5c0.9,1.1,1,2.4,0.4,4.1
			c-1.3,2.8-3.8,8.6-7.6,17.3c-1.4,3.4-2.6,6.6-3.6,9.2c-0.9,2.6-1.7,5-2.4,7c-0.6,1.5-0.9,3.2-0.9,4.9c-0.1,1.1,0.2,2,0.9,2.8
			c1.4,1.5,4.5,2.2,9.1,2.2c1.7,0,3.9-0.8,6.6-2.5c1.5-0.9,2.8-1.9,4.2-3c1.3-1.1,2.3-2.2,3.2-3.6c0.5-0.6,0.8-0.4,1.1,0.4
			c0.6,1.7,0.9,3.6,0.7,5.4C370.8,113.8,370.5,114.8,370.1,115.3 M340.8,80.4c0-1.5-1.5-2.4-4.6-2.5c-2.7-0.2-6,1-9.9,3.5
			c-3.6,2.4-6.6,5.4-8.9,9.1c-4,6.7-6.1,12.3-6.1,16.8c0,4.4,1.7,6.6,4.9,6.6c1.7,0,3.7-1.2,6.1-3.7c0.5-0.5,1.2-1.3,2.1-2.4
			c0.9-1.1,2.2-2.7,3.7-4.6c4.2-5.2,8.4-12.6,12.6-22C340.7,80.9,340.8,80.6,340.8,80.4L340.8,80.4L340.8,80.4z"/>
		<path id="svg_10" class="st2" d="M434.4,115.3c-3.6,3.7-8.2,6.3-13.3,7.2c-1,0.1-2.2,0.2-3.6,0.4c-1.4,0.2-3,0.4-4.9,0.6
			c-5.8,0.8-9.3,2.6-10.4,5.3c-4.4,10.7-8.4,17.6-12.2,20.8c-3.4,3.2-6.6,4.7-9.5,4.7c-1.8,0.1-3.6-0.6-5-1.8
			c-1.3-1.3-2.1-3.1-2.1-5c0.1-2,0.6-4,1.6-5.8c1.5-2.8,3.5-5.2,5.8-7.4c2.1-2.1,4.4-4,7-5.4c0.6-0.4,1.3-0.8,1.9-1.2l3.6-8
			c1.2-2.7,2.4-5.5,3.7-8.6c0.5-0.7,0.3-1.1-0.4-1.1c-0.6,0.1-1,0.4-1.2,1c-1.3,2.2-4,4.8-8.3,7.9c-5.3,3.7-10,5.3-14.1,4.9
			c-7.8-0.7-11.8-5.6-11.8-15c0-6.8,1.6-13.4,4.7-19.3c3.2-6.1,7.7-11.4,13.3-15.4c5.8-4.1,11.5-6.3,17.4-6.3c3.6,0,7.2,1,10.3,2.9
			c0.3,0.5,0.8,0.8,1.3,0.8c1,0,2-1.1,2.8-3.1c0.4-0.7,1.3-1.4,2.8-2.1c1.3-0.2,2.6-0.2,3.9-0.2c1.4,0,2.8,0.2,4.2,0.7
			s2.3,1.9,2.3,3.3c0,0.7-2.7,8.2-8,22.6c-4.8,12.8-7.6,20.4-8.5,22.8c-0.1,0.2-0.1,0.2-0.2,0.4c0,0.1-0.1,0.2-0.2,0.2
			c-0.2,0.5-0.2,0.7,0,0.8c0.3,0,0.6,0,0.9-0.2c3.6-0.7,7.3-1.1,10.9-1.2c2,0,4.6-1.1,7.7-3.2c2.4-1.6,4.5-3.6,6.3-5.9
			c0.5-0.6,0.8-0.4,1.1,0.4c0.6,1.7,0.9,3.6,0.7,5.4C435.1,113.7,434.8,114.8,434.4,115.3 M404.1,78.1c-1.2-0.6-2.4-0.9-3.8-0.9
			c-1.7,0-3.5,0.5-5.1,1.2c-1.9,0.9-3.6,2-5.3,3.3c-1.8,1.5-3.6,3.2-5.1,5c-1.7,2-3.2,4.1-4.4,6.3c-3.5,5.9-5.3,10.7-5.3,14.3
			c0,4,1.6,6,4.7,6c3.6,0,9-5.1,16.3-15.5c3.6-5.1,6.6-10.7,8.9-16.5C405.7,79.8,405.3,78.7,404.1,78.1L404.1,78.1L404.1,78.1z"/>
		<path id="svg_11" class="st2" d="M480.2,115.3c-3.6,3.8-8.2,6.3-13.3,7.3c-4.4,0.9-8.9,1.3-13.5,1.2c-10.3,0-17.8-1.8-22-5.3
			c-4.9-4.1-7.3-10-7.3-17.3c0-6.5,1.8-13.3,5.4-20.8c2.4-5,6.2-9.3,11-12c3.6-2.2,7.8-3.3,12.1-3.3c1.9-0.1,3.8,0.2,5.5,1
			c5.3,2.4,7.9,6.9,7.9,13.6c0,1.6-0.2,3.2-0.4,4.7c-0.7,4.5-3.9,9.9-9.7,16.3c-1.7,2-3.5,3.7-5.4,5.5c-1.7,1.6-3.5,3.1-5.2,4.4
			c-0.2,0.2-0.5,0.5-0.7,0.8c0,0.4,0.6,0.8,1.7,1.4c3.9,2.4,10.3,3.1,18.9,2.2c5.6-0.6,10.3-3.5,14.3-9c0.5-0.6,0.8-0.4,1.1,0.4
			c0.6,1.7,0.9,3.6,0.7,5.4C481.1,113.7,480.7,114.7,480.2,115.3 M447.7,78.5c-2.3,1.8-4.1,4.1-5.2,6.9c-2.9,6.3-4.3,11.5-4.3,15.7
			c0,3,0.9,3.8,2.7,2.5c5.7-3.5,10.4-8.5,13.9-14.3c2-3.4,3-6.3,3-8.6c0-3.2-1.3-4.7-3.9-4.7C451.8,76,449.8,76.9,447.7,78.5
			L447.7,78.5L447.7,78.5z"/>
	</g>
	<text transform="matrix(0.9679 0 0 1 45.4707 118.832)" class="st3 st4 st5">PRATISHTHA</text>
	<text id="svg_13" transform="matrix(1.0143 0 0 1 -0.5107 108.2295)" class="st6"><tspan x="0" y="0" class="st7 st4 st8">PRATISHTHA</tspan><tspan x="573.8" y="0" class="st7 st4 st9"> </tspan><tspan x="595" y="0" class="st7 st4 st8">&apos;18</tspan></text>
</g>
</svg>
