<svg width="670.9" height="154.2" xmlns="http://www.w3.org/2000/svg">
 <style type="text/css">.st0{display:none;}
	.st1{display:inline;fill:none;stroke:#FF0055;stroke-miterlimit:10;}
	.st2{font-family:'Mael';}
	.st3{font-size:90.9854px;}</style>

 <title>Pratishtha_logo</title>
 <g>
  <title>background</title>
  <rect fill="none" id="canvas_background" height="402" width="582" y="-1" x="-1"/>
 </g>
 <g>
  <title>Layer 1</title>
  <g id="svg_1" class="st0">
   <path id="svg_2" d="m370.8,22.7c9.3,-0.2 18.1,3.9 23.9,11.2l0,-3c-0.1,-0.3 -0.2,-0.6 -0.3,-1c-0.2,-2 -0.3,-2.9 -0.3,-2.7c0,-3.1 1.4,-4.6 4.1,-4.6c2.9,0 4.3,1.8 4.3,5.5c0,0.7 -0.1,2.8 -0.3,6.3c-0.4,3 -0.7,6.1 -0.8,9.1c0,2.4 0.2,4.9 0.5,7.3l0.6,5l0,1.3c0,4 -1.6,5.9 -4.8,5.9c-3.4,0 -5.1,-1.9 -5,-5.6l0,-4.7c0.2,-6.3 -1.8,-11.4 -5.9,-15.3s-9.5,-5.9 -16.1,-5.8c-8.7,0 -15.5,3.3 -20.4,10s-7.4,15.9 -7.4,27.7c0,12.1 2.5,21.5 7.6,28.2s12.1,10.1 21.2,10.1c4.7,0.1 9.2,-1.2 13.2,-3.6c3.7,-2.1 6.6,-5.4 8.2,-9.4c1.2,-3.3 1.7,-6.8 1.6,-10.3c0,-4 1.7,-6.1 5,-6.1c3.6,0 5.4,2 5.4,6.1c0,9.4 -3.3,17.1 -9.8,23.1s-14.9,9 -25.2,9c-11.9,0 -21.4,-4.2 -28.5,-12.5c-7.1,-8.4 -10.6,-19.5 -10.6,-33.4c0,-14.3 3.6,-25.9 10.9,-34.7c7.5,-8.8 17,-13.2 28.9,-13.1z" class="st1"/>
   <path id="svg_3" d="m428.4,58.8l0,40.8c0.1,4.5 1.3,6.7 3.6,6.7c1.1,-0.1 2.2,-0.3 3.3,-0.7c0.7,-0.1 1.4,-0.2 2.1,-0.3c2.9,0 4.4,1.5 4.4,4.5s-1.8,4.4 -5.4,4.3c-2.2,-0.1 -4.5,-0.2 -6.7,-0.5c-2.3,-0.3 -4.7,-0.5 -7.1,-0.5c-2.1,0.1 -4.2,0.2 -6.3,0.5c-2,0.3 -4.1,0.5 -6.2,0.5l-0.7,0c-3.7,0 -5.5,-1.6 -5.5,-4.7c0,-2.7 1.5,-4.1 4.5,-4.1l0.9,0c0.4,0.1 0.8,0.2 1.2,0.2c1.3,0.3 2.6,0.6 3.8,0.7c1.4,0.2 2.6,-0.7 3,-2s0.6,-4.9 0.7,-10.6l0.1,-9.2l0,-44c0,-1.8 -0.1,-3.5 -0.4,-5.3c-0.6,-2 -1.8,-3 -3.7,-3c-0.3,0 -1.4,0.2 -3.4,0.5c-0.8,0.2 -1.6,0.2 -2.4,0.3c-3,0 -4.5,-1.4 -4.5,-4.2s1.8,-4.3 5.3,-4.3c0.8,0 1.7,0 2.5,0.1l3.5,0.5c2.5,0.4 5,0.3 7.5,-0.1c1.3,-0.2 2.6,-0.3 3.9,-0.4c2,0 3,1.3 3,3.8c0,0.7 0,1.3 -0.1,2c-0.6,6.6 -0.9,16.2 -0.9,28.5z" class="st1"/>
   <path id="svg_4" d="m470.6,115.9c-9.2,0 -16.6,-3.2 -22.1,-9.5s-8.3,-14.9 -8.3,-25.6s2.8,-19.2 8.3,-25.6c5.6,-6.4 13,-9.5 22.4,-9.5c9.5,0 17.1,3.1 22.6,9.3s8.3,14.7 8.3,25.4s-2.8,19.3 -8.5,25.8c-5.6,6.5 -13.2,9.7 -22.7,9.7zm0.7,-61.5c-6.1,0 -11,2.1 -14.5,6.4s-5.4,10.4 -5.8,18.3l0,1.7c0,8.2 1.7,14.7 5.2,19.4s8.3,7 14.5,7c6.4,0 11.4,-2.3 15,-7s5.5,-11.2 5.5,-19.5c0,-17.6 -6.6,-26.3 -19.9,-26.3l0,0z" class="st1"/>
   <path id="svg_5" d="m558.6,110.4l0,-4.1c-4.7,6.4 -11.5,9.6 -20.6,9.6c-10.3,0 -17.5,-3.2 -21.6,-9.6c-1.8,-3 -2.8,-6.4 -2.9,-9.9c-0.1,-1.8 -0.1,-5.7 -0.1,-11.6l0,-10.8c0,-12 -1.3,-18 -3.8,-18c-0.8,0 -1.7,0.1 -2.5,0.2c-0.9,0.1 -1.8,0.2 -2.7,0.2c-3.1,0 -4.7,-1.4 -4.7,-4.3c0,-2.8 1.9,-4.2 5.7,-4.1c1.3,0 2.6,0.1 3.9,0.3s2.6,0.3 3.9,0.3c1.4,-0.1 2.7,-0.2 4.1,-0.4c1.3,-0.2 2.1,-0.3 2.2,-0.3c2.7,0 4.1,1.7 4.1,5l0,11.3l-0.4,9.7l0,8.5c0,7.6 0.6,13.1 1.8,16.4c2,5.5 6.8,8.3 14.5,8.3c3.8,0 3.8,-0.9 6.7,-2.6s8.2,-4 9.4,-6.8c1.4,-3.4 2.1,-9.9 2.1,-19.5l0,-15.6c-0.4,-4.2 -1.6,-6.3 -3.4,-6.3l-3.9,0c-3.1,0 -4.6,-1.3 -4.6,-4c0,-3 1.7,-4.5 5.1,-4.5c0.8,0 2,0.1 3.6,0.3s2.8,0.3 3.6,0.3c1.1,0 2.1,-0.1 3.2,-0.3c1,-0.1 2.1,-0.2 3.2,-0.3c2.6,0 3.9,1.4 3.9,4.2c0,1 -0.1,1.9 -0.3,2.9c-0.5,4.9 -0.7,9.8 -0.7,14.8l0,20.3c0,5.3 0,8.3 0.1,9c0.4,4.7 1.7,7 3.7,7c0.9,0 1.8,-0.1 2.6,-0.3c0.9,-0.2 1.7,-0.3 2.6,-0.3c3,0 4.5,1.4 4.5,4.3s-1.8,4.4 -5.5,4.5c-1.1,0 -2.3,-0.1 -3.4,-0.3c-2.2,-0.3 -3.5,-0.4 -4.1,-0.4c-0.3,0 -1.2,0.1 -2.8,0.3c-0.9,0.2 -1.8,0.4 -2.8,0.4c-2.4,0 -3.7,-1.3 -3.7,-3.8z" class="st1"/>
   <path id="svg_6" d="m608.4,45.7c8.7,0 15.1,3.4 19.5,10.1l0,-13.3c0.1,-2.2 0,-4.3 -0.3,-6.4c-0.4,-2.7 -1.7,-4.1 -3.7,-4.1c-1,0 -2,0.2 -3,0.4s-2,0.4 -3,0.4c-3.2,0 -4.9,-1.4 -4.9,-4.2s2.2,-4.3 6.6,-4.3c0.7,0 2,0.1 3.8,0.3l4.3,0.4c1.1,0 2.3,-0.1 3.4,-0.3c1.1,-0.2 2.3,-0.3 3.4,-0.3c2.5,0 3.7,1.8 3.7,5.3l0,1.3c-0.1,0.3 -0.2,2.6 -0.3,7c0,0.5 -0.1,3.9 -0.4,10.1c-0.2,4.4 -0.3,7.7 -0.3,10l0,34.9c0.1,5.8 0.4,9.4 0.8,10.8c0.4,1.4 1.8,2.3 3.2,2.1c0.9,0 1.8,-0.1 2.7,-0.3c1,-0.1 2,-0.2 3,-0.3c3.3,0 5,1.4 5,4.3s-2,4.4 -5.9,4.5c-1.3,0 -2.7,-0.1 -4,-0.3c-1.3,-0.2 -2.7,-0.3 -4,-0.3c-0.3,0 -1.3,0.1 -3,0.3c-0.9,0.2 -1.8,0.4 -2.8,0.4c-2.4,0 -3.5,-1.6 -3.5,-4.7l0,-2.9c-4.6,6.2 -11.4,9.3 -20.2,9.3s-16,-3.2 -21.5,-9.7c-5.4,-6.5 -8.1,-15 -8.1,-25.5s2.7,-19 8,-25.4c5.4,-6.4 12.5,-9.6 21.5,-9.6zm18.9,46.4c0.4,-3.7 0.6,-7.4 0.5,-11.2c0.1,-4 -0.1,-8 -0.7,-12c-0.6,-4 -2.6,-7.6 -5.7,-10.2c-3.4,-2.9 -7.7,-4.4 -12.2,-4.3c-6.2,0 -11,2.3 -14.5,7s-5.2,11 -5.2,19.1c0,8.3 1.8,14.9 5.4,19.6c6.5,8.2 18.5,9.6 26.7,3l0,0c3.3,-2.9 5.3,-6.8 5.7,-11z" class="st1"/>
   <path id="svg_7" d="m662.8,115.9c-2.2,0 -4.3,-0.8 -5.8,-2.4c-3.2,-3.3 -3.2,-8.4 0,-11.7c3.1,-3.2 8.2,-3.3 11.4,-0.1l0.1,0.1c3.2,3.3 3.2,8.4 0,11.7c-1.4,1.5 -3.5,2.4 -5.7,2.4z" class="st1"/>
   <path id="svg_8" d="m68.8,90.8c-3.2,0.1 -6.4,-0.4 -9.4,-1.5c-0.8,-0.4 -1.7,-0.5 -2.6,-0.3c-0.3,0.1 -0.8,1 -1.4,2.7c-2.7,10.7 -7.3,20.9 -13.4,30.1c-7.8,11.6 -15.8,17.5 -24.1,17.5c-6.4,0 -11.2,-2.6 -14.4,-7.9c-2.4,-4.2 -3.6,-9.8 -3.6,-16.6c0,-14 4.6,-31.9 13.9,-53.5c8.6,-19.8 20,-35.2 34.3,-46.4c12.8,-10.3 25.4,-15.2 37.7,-14.9c10.2,0.2 17.8,3.8 23,10.6c4.2,5.6 6.3,13.1 6.3,22.4c0,10.3 -2.8,20.8 -8.4,31.5c-6,11.7 -13.3,19.3 -21.7,22.9c-5.1,2.2 -10.6,3.4 -16.2,3.4m25.2,-51.7c0.2,-1.9 0.3,-3.9 0.3,-5.8c0,-12.9 -4.2,-19.5 -12.7,-19.7c-10.6,-0.1 -22.4,8.3 -35.7,25.3c-11,14.3 -18.4,27.8 -22.3,40.4c-5.3,17.5 -7.9,28.8 -7.9,34.1c0,4.7 1.5,7 4.5,7c5.6,0 11.8,-12.2 18.7,-36.5c1.8,-7 3.7,-18.6 5.6,-34.9c0.2,-1.9 1.2,-3.5 2.8,-4.5c1.7,-1 3.3,-2.1 4.9,-3.1c1.7,-1.5 3.9,-2.4 6.2,-2.6c2.2,0 3.4,1.3 3.6,3.9c0.2,4.1 0.2,8.2 -0.1,12.2c-0.3,5.1 -0.9,11.2 -1.8,18.4c-0.3,2.3 0.3,3.5 1.9,3.8c7.8,0.6 14.7,-3 20.7,-10.6c5.3,-6.1 8.8,-13.6 10.3,-21.6c0.5,-1.9 0.8,-3.9 1,-5.8z" class="st1"/>
   <path id="svg_9" d="m197.5,106.6c-4.5,4.6 -10.4,7.7 -16.8,8.7c-1.4,0.2 -2.8,0.4 -4.3,0.5s-3,0.2 -4.6,0.2c-8,0 -13.5,-1.1 -16.4,-3.2c-2.8,-1.8 -4.4,-5 -4.4,-8.3c0.2,-2.6 0.6,-5.1 1.4,-7.5c0.1,-0.3 0.1,-0.7 0,-1c-0.4,-0.1 -0.7,0.1 -0.9,0.3c-0.4,0.3 -0.7,0.7 -0.9,1.2c-1.7,3.4 -4.8,7.1 -9.2,11.1c-6.4,5.7 -12.5,8.6 -18.3,8.6c-5.6,0 -9.9,-1.9 -13,-5.6c-3.2,-3.5 -4.8,-8.2 -4.8,-13.9c0,-7.4 2.3,-15.5 6.9,-24.1c4.2,-8.4 10.9,-15.4 19.2,-20c5.7,-3.3 12.1,-5.1 18.6,-5.4c4.5,-0.2 8.9,0.9 12.9,2.9c1.8,1 3.1,0.9 3.8,-0.3c0.6,-1 1.3,-1.9 2.1,-2.7s1.7,-1.5 2.7,-1.9c1.1,-0.3 3.3,-0.2 6.5,0.5c3.2,0.6 5.2,1.2 6,1.9c1.1,1.3 1.3,3 0.5,5.1c-1.6,3.4 -4.8,10.5 -9.6,21.2c-1.8,4.2 -3.3,8 -4.5,11.2s-2.2,6.1 -3,8.5c-0.7,1.9 -1.1,3.9 -1.2,6c-0.1,1.3 0.3,2.5 1.2,3.4c1.8,1.8 5.7,2.7 11.5,2.7c2.2,0 5,-1 8.4,-3.1c1.9,-1.1 3.6,-2.3 5.3,-3.7c1.6,-1.3 2.9,-2.7 4.1,-4.4c0.6,-0.7 1,-0.5 1.4,0.5c0.8,2.1 1.1,4.4 0.9,6.7c-0.6,2.1 -1,3.3 -1.5,3.9m-37,-42.6c0,-1.9 -1.9,-3 -5.8,-3.1c-3.4,-0.2 -7.6,1.2 -12.5,4.3c-4.5,2.9 -8.4,6.7 -11.3,11.1c-5.1,8.1 -7.7,15 -7.7,20.6c0,5.4 2.1,8 6.2,8c2.2,0 4.7,-1.5 7.7,-4.5c0.6,-0.6 1.5,-1.6 2.6,-3c1.2,-1.4 2.8,-3.3 4.7,-5.6c5.3,-6.4 10.6,-15.4 15.9,-26.9c0.1,-0.3 0.2,-0.6 0.2,-0.9l0,0z" class="st1"/>
   <path id="svg_10" d="m278.7,106.6c-4.5,4.6 -10.4,7.7 -16.8,8.7c-1.3,0.1 -2.8,0.3 -4.5,0.5c-1.8,0.2 -3.8,0.5 -6.2,0.7c-7.4,1 -11.8,3.2 -13.2,6.5c-5.6,13.1 -10.7,21.6 -15.4,25.4c-4.3,3.9 -8.3,5.8 -12,5.8c-2.3,0.1 -4.6,-0.7 -6.3,-2.2c-1.7,-1.6 -2.7,-3.8 -2.6,-6.2c0.1,-2.5 0.8,-4.9 2,-7.1c1.9,-3.4 4.4,-6.4 7.3,-9c2.6,-2.6 5.6,-4.9 8.9,-6.7c0.8,-0.5 1.6,-1 2.4,-1.5l4.5,-9.8c1.5,-3.3 3.1,-6.8 4.7,-10.5c0.6,-0.9 0.4,-1.4 -0.5,-1.4c-0.7,0.1 -1.3,0.5 -1.5,1.2c-1.6,2.7 -5.1,5.9 -10.5,9.6c-6.7,4.5 -12.7,6.5 -17.8,6c-9.9,-0.8 -14.9,-6.9 -14.9,-18.3c0,-8.3 2,-16.4 6,-23.6c4.1,-7.5 9.8,-13.9 16.8,-18.8c7.3,-5.1 14.6,-7.7 21.9,-7.7c4.6,0 9.1,1.2 13,3.6c0.4,0.6 1,1 1.7,1c1.3,0 2.5,-1.3 3.6,-3.8c0.5,-0.8 1.7,-1.7 3.6,-2.6c1.7,-0.3 3.3,-0.3 5,-0.2c1.8,0 3.6,0.3 5.3,0.9c1.7,0.6 2.9,2.3 2.9,4.1c0,0.8 -3.4,10 -10.1,27.6c-6.1,15.6 -9.6,24.9 -10.8,27.8c-0.1,0.2 -0.1,0.3 -0.2,0.5c0,0.1 -0.1,0.3 -0.2,0.3c-0.2,0.6 -0.2,0.9 0,1c0.4,0 0.8,0 1.2,-0.2c4.6,-0.9 9.2,-1.4 13.8,-1.5c2.5,0 5.8,-1.3 9.8,-3.9c3,-2 5.7,-4.4 8,-7.2c0.6,-0.7 1,-0.5 1.4,0.5c0.8,2.1 1.1,4.4 0.9,6.7c-0.3,1.9 -0.7,3.2 -1.2,3.8m-38.2,-45.4c-1.5,-0.7 -3.1,-1.1 -4.8,-1.1c-2.2,0 -4.4,0.6 -6.4,1.5c-2.4,1.1 -4.6,2.5 -6.7,4.1c-2.3,1.8 -4.5,3.9 -6.4,6.2c-2.1,2.4 -4,5 -5.6,7.7c-4.4,7.2 -6.7,13 -6.7,17.5c0,4.9 2,7.4 6,7.4c4.6,0 11.4,-6.3 20.6,-19c4.6,-6.3 8.4,-13 11.3,-20.2c0.6,-2 0.2,-3.3 -1.3,-4.1l0,0z" class="st1"/>
   <path id="svg_11" d="m336.6,106.6c-4.5,4.7 -10.4,7.8 -16.8,8.9c-5.6,1.1 -11.3,1.6 -17,1.5c-13.1,0 -22.4,-2.2 -27.8,-6.5c-6.2,-5.1 -9.2,-12.2 -9.2,-21.2c0,-7.9 2.3,-16.3 6.8,-25.4c3,-6.2 7.9,-11.3 13.9,-14.6c4.6,-2.7 9.9,-4.1 15.3,-4.1c2.4,-0.1 4.8,0.3 7,1.2c6.7,2.9 10,8.4 10,16.6c0,2 -0.2,3.9 -0.5,5.8c-0.9,5.5 -5,12.1 -12.3,20c-2.1,2.4 -4.4,4.6 -6.8,6.8c-2.2,2 -4.4,3.8 -6.6,5.4c-0.3,0.3 -0.6,0.6 -0.9,1c0,0.5 0.7,1 2.1,1.7c5,2.9 13,3.8 23.8,2.7c7.1,-0.7 13.1,-4.3 18,-11c0.6,-0.7 1,-0.5 1.4,0.5c0.8,2.1 1.1,4.4 0.9,6.7c-0.3,2.1 -0.7,3.3 -1.3,4m-41.1,-44.9c-2.9,2.2 -5.2,5.1 -6.6,8.4c-3.7,7.7 -5.5,14.1 -5.5,19.2c0,3.7 1.1,4.7 3.4,3.1c7.2,-4.3 13.2,-10.3 17.5,-17.5c2.5,-4.2 3.8,-7.7 3.8,-10.5c0,-3.9 -1.7,-5.8 -5,-5.8c-2.4,0 -4.9,1.1 -7.6,3.1l0,0z" class="st1"/>
  </g>
  <text x="-28.830393" y="0" id="svg_13" class="st2 st3" transform="matrix(1,0,0,1,86.2402,110.9814) ">PRATISHTHA</text>
 </g>
</svg>